<svg width="27" height="27" viewBox="0 0 27 27" fill="none" xmlns="http://www.w3.org/2000/svg">
<path d="M4.77978 0.625488H21.7558C24.3296 0.625488 26.4104 2.71623 26.4104 5.30219V21.698C26.4104 24.284 24.3296 26.3748 21.7558 26.3748H4.77978C2.20597 26.3748 0.125031 24.284 0.125031 21.698V5.30219C0.125031 2.71623 2.20597 0.625488 4.77978 0.625488Z" fill="#470137"/>
<path d="M13.9471 7.39285L10.6613 12.8398L14.1661 18.6169C14.188 18.6609 14.1989 18.7049 14.188 18.7489C14.177 18.793 14.1333 18.76 14.0675 18.7709H11.5594C11.3843 18.7709 11.2637 18.76 11.1871 18.6499C10.957 18.1877 10.7161 17.7365 10.4862 17.2743C10.2561 16.8232 10.0043 16.361 9.74134 15.8879C9.47851 15.4147 9.21568 14.9415 8.95286 14.4573H8.93097C8.70092 14.9306 8.44898 15.4037 8.19715 15.8769C7.94522 16.3501 7.69328 16.8232 7.45234 17.2854C7.20051 17.7476 6.94857 18.2208 6.69663 18.6719C6.65286 18.7819 6.56522 18.793 6.4448 18.793H4.03528C3.99141 18.793 3.95863 18.815 3.95863 18.76C3.94764 18.7159 3.95863 18.6719 3.98051 18.6389L7.38669 13.0269L4.06816 7.38181C4.03528 7.33783 4.02428 7.29375 4.04617 7.27176C4.06816 7.23873 4.11193 7.22778 4.1557 7.22778H6.64187C6.69663 7.22778 6.7514 7.23873 6.79527 7.24977C6.83904 7.27176 6.87192 7.3048 6.9048 7.34877C7.11286 7.82199 7.3538 8.2952 7.60574 8.76832C7.86856 9.24153 8.1205 9.7037 8.39422 10.1659C8.65715 10.628 8.89809 11.0901 9.12804 11.5633H9.14993C9.37998 11.0792 9.62092 10.606 9.86186 10.1438C10.1028 9.68161 10.3547 9.21944 10.6066 8.75727C10.8585 8.2952 11.0994 7.82199 11.3404 7.37086C11.3514 7.32678 11.3733 7.28281 11.4062 7.26082C11.4499 7.23873 11.4938 7.22778 11.5486 7.23873H13.8594C13.9142 7.22778 13.969 7.26082 13.98 7.31584C13.9909 7.32678 13.969 7.37086 13.9471 7.39285Z" fill="#FF61F6"/>
<path d="M19.0072 19.0018C18.1967 19.0128 17.3862 18.8478 16.6524 18.5067C15.9624 18.1875 15.3929 17.6594 14.9986 17.0101C14.5934 16.3389 14.3962 15.5025 14.3962 14.5012C14.3853 13.6869 14.5934 12.8836 14.9986 12.1794C15.4148 11.4641 16.0171 10.8699 16.7401 10.4738C17.5067 10.0447 18.4267 9.83551 19.5109 9.83551C19.5657 9.83551 19.6424 9.83551 19.7409 9.84655C19.8395 9.85749 19.9491 9.85749 20.0805 9.86854V6.39127C20.0805 6.31426 20.1133 6.27028 20.19 6.27028H22.4132C22.468 6.25923 22.5119 6.30321 22.5228 6.34729C22.5228 6.35823 22.5228 6.36928 22.5228 6.36928V16.8451C22.5228 17.0432 22.5338 17.2632 22.5448 17.5053C22.5666 17.7364 22.5775 17.9565 22.5885 18.1435C22.5885 18.2205 22.5556 18.2866 22.479 18.3196C21.9095 18.5617 21.3071 18.7377 20.6938 18.8478C20.1352 18.9468 19.5767 19.0018 19.0072 19.0018ZM20.0805 16.8011V11.9593C19.9819 11.9373 19.8833 11.9153 19.7848 11.9043C19.6642 11.8932 19.5438 11.8823 19.4233 11.8823C18.9962 11.8823 18.5691 11.9703 18.1857 12.1683C17.8134 12.3554 17.4958 12.6305 17.2548 12.9826C17.0138 13.3348 16.8934 13.808 16.8934 14.3802C16.8824 14.7654 16.9481 15.1504 17.0795 15.5136C17.1891 15.8107 17.3534 16.0748 17.5724 16.2948C17.7805 16.4929 18.0324 16.647 18.3171 16.735C18.6128 16.834 18.9195 16.8781 19.2262 16.8781C19.3904 16.8781 19.5438 16.8671 19.6862 16.856C19.8285 16.8671 19.9491 16.8451 20.0805 16.8011Z" fill="#FF61F6"/>
</svg>
