<svg width="183" height="30" viewBox="0 0 183 30" fill="none" xmlns="http://www.w3.org/2000/svg">
<path d="M0.43129 2.69609C1.27492 1.03748 3.3969 0.215776 5.14435 0.798473C6.23734 1.14588 7.12396 2.02897 7.54148 3.09433C9.87459 8.63651 12.2182 14.1748 14.5504 19.7168C14.6144 19.5987 14.6756 19.4788 14.729 19.355C16.5214 15.0866 18.3281 10.8229 20.129 6.55745C20.9918 4.55237 22.3867 2.69702 24.3376 1.66131C25.4221 1.07964 26.6354 0.760963 27.8564 0.660213C31.016 0.313736 34.229 1.82643 36.202 4.28742C38.0354 2.70849 40.1516 1.36567 42.5316 0.824408C43.8185 0.525878 45.1551 0.583437 46.4565 0.743707C48.0835 0.95585 49.6914 1.51933 50.9995 2.53292C51.6587 3.03099 52.2261 3.64148 52.7392 4.28845C54.9987 2.09427 58.0504 0.644919 61.2214 0.612266C63.2421 0.569072 65.2848 1.10847 66.9854 2.2161C68.9431 3.46778 70.3914 5.49497 70.9178 7.76882C71.1758 8.81786 71.1873 9.90534 71.1844 10.9794C71.1844 15.5866 71.1835 20.1938 71.1854 24.801C71.1729 25.4144 71.1501 26.0364 70.9819 26.6306C70.6876 27.768 69.9358 28.8237 68.8418 29.2959C67.3016 29.9717 65.2714 29.7184 64.1516 28.3861C63.2497 27.362 63.0223 25.9346 63.0615 24.6101C63.0635 20.3234 63.0615 16.0368 63.0624 11.7502C63.0615 10.6378 62.6545 9.50131 61.8385 8.73055C61.0924 8.01351 60.0519 7.65939 59.0287 7.65164C57.8918 7.62292 56.7156 7.98479 55.8787 8.77953C55.0742 9.53293 54.6424 10.6454 54.6501 11.7434C54.6501 16.1597 54.651 20.5749 54.6491 24.9911C54.6434 26.1353 54.3807 27.3255 53.6536 28.2335C53.0793 28.9774 52.2051 29.464 51.2813 29.5974C50.2503 29.748 49.1354 29.5964 48.2688 28.9869C47.4882 28.4504 46.9714 27.5923 46.7287 26.6852C46.4803 25.8243 46.5214 24.9192 46.5204 24.0332C46.5204 19.9376 46.5195 15.8429 46.5214 11.7473C46.5118 10.7289 46.1784 9.69134 45.4914 8.92926C44.7214 8.0596 43.5424 7.63924 42.4007 7.65071C41.2514 7.64203 40.0638 8.03181 39.2498 8.86974C38.4701 9.64236 38.0927 10.7558 38.0947 11.8433C38.0947 16.2911 38.0937 20.74 38.0947 25.1879C38.087 26.3109 37.7679 27.4685 37.0332 28.3352C36.4943 28.9821 35.7233 29.4188 34.8997 29.5696C33.717 29.7894 32.3966 29.5868 31.4631 28.7816C30.436 27.9052 29.9947 26.5115 29.9908 25.1908C29.987 19.7793 29.9908 14.3686 29.9889 8.95798C29.9994 8.53473 29.794 8.10765 29.4309 7.88394C28.8759 7.50966 28.0016 7.69008 27.736 8.33602C25.21 13.8647 22.68 19.3914 20.1577 24.9221C19.6084 26.0729 19.0284 27.2381 18.1571 28.1826C17.5226 28.8718 16.6772 29.367 15.7551 29.5389C14.3067 29.8172 12.6893 29.6175 11.5113 28.6673C10.2673 27.6623 9.54976 26.1823 8.89434 24.7579C6.03957 18.5113 3.17524 12.2694 0.325239 6.02187C-0.131449 4.97087 -0.117118 3.71061 0.43129 2.69609Z" fill="#050038"/>
<path d="M166.803 1.56463C168.682 1.05117 170.674 0.99547 172.586 1.35063C174.708 1.74319 176.721 2.74242 178.294 4.22918C181.246 6.98198 182.634 11.1228 182.571 15.1079C182.521 16.0351 181.684 16.8501 180.753 16.8318C174.27 16.8338 167.786 16.8309 161.302 16.8327C161.45 18.7198 162.061 20.5877 163.132 22.1512C164.192 23.7014 165.748 24.9031 167.517 25.5165C169.344 26.1701 171.353 26.2065 173.236 25.79C175.03 25.3897 176.69 24.476 178.067 23.2628C178.384 22.992 178.675 22.6657 179.079 22.5256C179.78 22.2568 180.624 22.5448 181.056 23.1523C181.528 23.7704 181.487 24.7236 180.951 25.2909C179.629 26.6385 178.081 27.7884 176.338 28.5255C174.567 29.2829 172.632 29.5909 170.714 29.6005C168.696 29.6072 166.666 29.1869 164.844 28.3057C161.683 26.8199 159.224 23.9749 158.101 20.6673C157.282 18.3416 157.083 15.8249 157.349 13.3821C157.733 9.99777 159.242 6.69689 161.762 4.38367C163.189 3.061 164.928 2.07913 166.803 1.56463ZM166.811 5.23224C165.171 5.95878 163.819 7.25551 162.903 8.79321C161.981 10.3078 161.477 12.0518 161.284 13.8083C161.751 13.8409 162.22 13.8179 162.689 13.8246C167.977 13.8266 173.266 13.8199 178.553 13.8275C178.562 13.3668 178.467 12.9137 178.396 12.4607C178.066 10.6342 177.372 8.84023 176.192 7.3947C175.143 6.09218 173.654 5.15639 172.029 4.78109C170.3 4.38852 168.437 4.49888 166.811 5.23224Z" fill="#050038"/>
<path d="M74.4032 1.26829C75.0719 1.08208 75.8554 1.22613 76.354 1.72998C76.6445 2.00454 76.8508 2.35773 76.9847 2.73304C79.2968 9.45002 81.6021 16.1698 83.9047 22.8906C84.2353 22.091 84.4751 21.255 84.7761 20.443C86.8063 14.5409 88.8413 8.64184 90.8821 2.74358C91.1085 2.0592 91.6197 1.41233 92.3496 1.25206C93.0652 1.10233 93.8897 1.18293 94.4572 1.68493C94.8165 1.9911 95.0391 2.42107 95.1929 2.86169C97.3674 9.19757 99.5333 15.5373 101.704 21.875C101.832 22.212 101.915 22.5671 102.077 22.8915C104.417 16.1189 106.768 9.34916 109.12 2.58134C109.299 2.09857 109.615 1.64463 110.081 1.40655C110.777 1.04953 111.675 1.1416 112.287 1.62923C112.857 2.06313 113.138 2.84247 112.961 3.54028C112.83 4.05374 112.633 4.54623 112.458 5.04429C109.925 12.126 107.375 19.2019 104.839 26.2826C104.638 26.8211 104.466 27.3711 104.242 27.9009C103.938 28.5728 103.364 29.1679 102.628 29.3301C101.92 29.4693 101.116 29.3608 100.571 28.8512C99.9748 28.3281 99.7942 27.5256 99.5381 26.8087C97.3846 20.5601 95.2197 14.3154 93.0613 8.06876C93.0346 8.01502 92.9802 7.90849 92.9534 7.85475C92.0993 10.1996 91.3082 12.5694 90.4751 14.923C89.0544 18.9965 87.6356 23.071 86.2197 27.1474C86.0238 27.7118 85.848 28.3174 85.4066 28.7475C84.8229 29.38 83.855 29.5192 83.061 29.2697C82.2872 29.0201 81.754 28.3107 81.4952 27.564C78.7512 19.8661 75.99 12.1749 73.2481 4.47606C73.0961 4.03266 72.9012 3.58533 72.9251 3.10741C72.9204 2.24933 73.592 1.47754 74.4032 1.26829Z" fill="#050038"/>
<path d="M122.936 1.28639C125.111 1.13377 127.328 1.12034 129.46 1.63576C131.069 2.02068 132.623 2.73285 133.867 3.84245C135.351 5.12574 136.297 6.94854 136.719 8.85277C137.195 10.8387 137.042 12.8918 137.067 14.9142C137.067 19.0751 137.065 23.2359 137.068 27.3978C137.083 28.0169 136.808 28.6446 136.316 29.0237C135.728 29.4825 134.886 29.5239 134.218 29.2263C133.59 28.946 133.176 28.2742 133.169 27.5889C133.16 26.701 133.184 25.8131 133.159 24.9252C132.171 26.1347 131.018 27.2232 129.656 27.9939C127.8 29.0718 125.649 29.5949 123.512 29.6007C121.351 29.6535 119.16 29.1629 117.268 28.0976C115.733 27.2279 114.419 25.9043 113.721 24.263C112.998 22.6054 112.931 20.7174 113.29 18.9608C113.667 17.1467 114.744 15.5035 116.234 14.4131C118.114 13.0204 120.447 12.3994 122.743 12.1767C126.243 11.8907 129.792 12.2679 133.164 13.2518C133.224 11.4636 133.069 9.57073 132.101 8.01773C131.321 6.71336 130.015 5.78904 128.585 5.32921C127.413 4.94532 126.175 4.79652 124.946 4.8205C123.273 4.79466 121.579 4.97126 119.994 5.53081C119.481 5.69976 118.995 5.94063 118.49 6.12684C117.812 6.37453 117.016 6.12973 116.556 5.58454C115.857 4.80996 116.028 3.376 116.988 2.89416C118.847 1.99195 120.876 1.44005 122.936 1.28639ZM121.718 15.5304C120.371 15.9009 119.042 16.5804 118.187 17.7236C117.315 18.8563 117.055 20.3737 117.277 21.7664C117.482 23.0603 118.257 24.2303 119.324 24.9751C120.994 26.174 123.136 26.5014 125.145 26.3209C127.214 26.1375 129.272 25.3927 130.85 24.0116C132.232 22.8185 133.147 21.0648 133.212 19.2238C133.223 18.2458 133.215 17.2677 133.214 16.2906C131.508 15.7742 129.751 15.4334 127.98 15.2501C125.896 15.0572 123.758 14.9785 121.718 15.5304Z" fill="#050038"/>
<path d="M142.016 3.20321C141.999 2.14735 142.906 1.16733 143.963 1.14532C145.056 1.07041 146.078 2.00629 146.101 3.10814C146.119 4.68325 146.101 6.26022 146.108 7.83636C146.446 7.25367 146.725 6.63656 147.12 6.08744C148.789 3.65239 151.403 1.83063 154.317 1.30363C155.064 1.19523 155.897 1.05315 156.584 1.46586C157.79 2.14827 157.881 4.11884 156.768 4.9328C156.289 5.32733 155.656 5.36091 155.073 5.45205C152.995 5.81775 150.993 6.77089 149.504 8.28938C148.264 9.51026 147.39 11.0729 146.855 12.7248C146.279 14.511 146.073 16.4019 146.108 18.2746C146.108 21.2501 146.107 24.2255 146.108 27.201C146.115 27.7683 145.908 28.3451 145.503 28.7464C145.009 29.2685 144.219 29.4643 143.534 29.2704C142.862 29.1083 142.305 28.5631 142.109 27.9007C141.979 27.5206 142.021 27.1146 142.017 26.7211C142.017 18.8821 142.018 11.0431 142.016 3.20321Z" fill="#050038"/>
</svg>
